<svg xmlns="http://www.w3.org/2000/svg" width="1580.654" height="424.921" viewBox="0 0 1580.654 424.921">
  <g id="logo" transform="translate(-6857.767 -286.828)">
    <g id="Grupo_1974" data-name="Grupo 1974">
      <path id="Caminho_1237" data-name="Caminho 1237" d="M7461.2,693.077h7.546a9.992,9.992,0,0,0,10.211,9.843,9.7,9.7,0,0,0,9.545-9.843c0-6.263-3.774-8.5-10.211-11.856-6.659-3.579-15.094-8.053-15.094-19.908a16.119,16.119,0,0,1,15.982-16.106,15.939,15.939,0,0,1,11.32,4.921,14.9,14.9,0,0,1,4.44,11.185h-7.769a8.151,8.151,0,0,0-2.442-5.816,7.189,7.189,0,0,0-5.549-2.461,7.908,7.908,0,0,0-7.991,8.277c0,6.934,3.773,9.4,10.655,12.75,6.437,3.579,14.428,7.829,14.428,19.014a17.536,17.536,0,1,1-35.071,0Z" fill="#fefff0" stroke="#fefff0" stroke-miterlimit="10" stroke-width="2"/>
      <path id="Caminho_1238" data-name="Caminho 1238" d="M7562.861,654.825H7543.55v54.134h-7.991V654.825h-19.311V647h46.613Z" fill="#fefff0" stroke="#fefff0" stroke-miterlimit="10" stroke-width="2"/>
      <path id="Caminho_1239" data-name="Caminho 1239" d="M7588.387,689.945V647h7.99v42.949a12.209,12.209,0,1,0,24.417,0V647h7.991v42.949a20.2,20.2,0,1,1-40.4,0Z" fill="#fefff0" stroke="#fefff0" stroke-miterlimit="10" stroke-width="2"/>
      <path id="Caminho_1240" data-name="Caminho 1240" d="M7710.467,678.313c0,17.448-13.984,30.646-31.3,30.646h-17.091V647h17.091C7697.148,647,7710.467,660.865,7710.467,678.313Zm-7.991,0c0-12.974-9.767-23.488-23.307-23.488h-9.1v46.3h9.1C7692.043,701.13,7702.476,691.288,7702.476,678.313Z" fill="#fefff0" stroke="#fefff0" stroke-miterlimit="10" stroke-width="2"/>
      <path id="Caminho_1241" data-name="Caminho 1241" d="M7739.321,647h7.991v61.963h-7.991Z" fill="#fefff0" stroke="#fefff0" stroke-miterlimit="10" stroke-width="2"/>
      <path id="Caminho_1242" data-name="Caminho 1242" d="M7770.616,677.866A32.479,32.479,0,0,1,7802.8,645.43c17.535,0,32.185,14.764,32.185,32.436a32.186,32.186,0,1,1-64.371,0Zm56.381,0a24.306,24.306,0,1,0-48.612,0,24.729,24.729,0,0,0,24.417,24.606C7816.12,702.472,7827,691.288,7827,677.866Z" fill="#fefff0" stroke="#fefff0" stroke-miterlimit="10" stroke-width="2"/>
    </g>
    <g id="Grupo_1975" data-name="Grupo 1975">
      <path id="Caminho_1243" data-name="Caminho 1243" d="M7358.212,526.3l-11.931-233.73-41.42-.391-42.326,96.229-6.51.26-42.64-97.567-32.143.132v-.262l-321.55,4-1.925.024,2.015,276.123,118.886,6.15,20.953-139.007-86.2-5.747.552,39.739,35.264.993v59.307h-45.381l-4.384-188.009,276.072-3.408-5.725,261.022,49.763-11.709,2.485-136.1L7251.029,563.3a9.583,9.583,0,0,0,9.063,6.47h0a9.582,9.582,0,0,0,8.957-6.18l31.531-107.62,9.571,111.027.147,1.693,186.019,10.1,25.556-39.213Z" fill="#fefff0"/>
      <path id="Caminho_1244" data-name="Caminho 1244" d="M7415.614,464.15v-36.7c6.525.163-6.624.683,14.964,1.006,52.717.791,54-.28,54.934-1.059,1.007-.839,2.386-1.989,1.81-24.39-.273-10.641-.881-21.145-.887-21.25l-.1-1.72-73.44-6.208,3.008-35.339,107.2-1.345-16.97-46.545-133.977,4.1,4.037,211.246.034,1.8L7524,515.458l26.469-38.722Z" fill="#fefff0"/>
      <path id="Caminho_1245" data-name="Caminho 1245" d="M7114.715,394.565l-62.9-12.152-57.134,219.675,49.374-1.576,23.705-81.762,25.635-.434,19.373,84.27,51.728-3.136Zm-32.79,106.611c-1.49-8.816-3.544-13.753-6.722-22.11a20.987,20.987,0,0,0-2.811-5.531c-3.832-4.924-26.5-10.693-32.733-10.838l-.15.033c6.24.039,27.5-2.562,31.474-7.372a20.962,20.962,0,0,0,2.973-5.444c3.424-8.259,5.519-14.015,7.269-22.783h.064a104.217,104.217,0,0,0,6.842,22.326,20.939,20.939,0,0,0,2.973,5.445c3.976,4.809,24.628,8.3,30.867,8.263l.059-.033c-6.239.145-27.869,6.1-31.7,11.027a20.978,20.978,0,0,0-2.81,5.53c-3.178,8.357-3.882,12.671-5.372,21.487" fill="#fefff0"/>
      <path id="Caminho_1246" data-name="Caminho 1246" d="M8438.421,478.024l-26.468,38.722-1.084-.056-146.689-7.65-.035-1.8-4.035-211.246,133.977-4.1,16.969,46.544-107.194,1.346-3.01,35.34,79.914,6.207.1,1.72c.007.105.613,10.609.888,21.25.576,22.4-.8,23.55-1.81,24.39-.937.779-2.216,1.848-54.936,1.059-21.587-.322-14.912-.843-21.437-1.006v36.7Z" fill="#fefff0"/>
      <path id="Caminho_1247" data-name="Caminho 1247" d="M7559.329,286.828l233.445,8.486-49.221,47.712v-.189l-136.219,1.868-2.494,45.884h65.551l-14.023,52.586-51.722,3.232-6.069,159.506-34.086-10.325-.028-1.117-7.044-307.5" fill="#fefff0"/>
      <path id="Caminho_1248" data-name="Caminho 1248" d="M7740.865,542.215l-54.181,15.936L7688.2,386.66l51.657-21.3Z" fill="#fefff0"/>
      <path id="Caminho_1249" data-name="Caminho 1249" d="M7909.817,511.225l.515,59.194-30.7,32.237-57.784-1.005-43.789-12.219-19.178-136.293,40.734-66.759,51.013-43.13,46.815,10.686,50.27,41.759-46.274,43.118-39.59-29.8L7812.06,455.4l.772,65.609,33.549,27.575,28.541-41.118Z" fill="#fefff0"/>
      <path id="Caminho_1250" data-name="Caminho 1250" d="M8045.909,311.612l-68.315,7.614-51.811,228.68,50.742-1.445,22.085-109.39,26.417-.4,22.16,111.688,42.427-4.637Zm-54.339,78.769,39.94,14.383-37.662.641,7.5-41.075,22.279-.314Z" fill="#fefff0"/>
      <path id="Caminho_1251" data-name="Caminho 1251" d="M8130.1,600.428l1.753.021,6.48-156.958,82.438,120.514.138.169,180.777,15.189,25.587-39.261L8263.2,526.523l-76.408-101.015,40.57-22.9,23.88-36.523-.284-.88c-.515-1.593-12.8-39.238-29.578-59.78-17.141-20.988-121.532-18.5-125.969-18.387l-1.925.05,4.23,297.522m81.752-199.981-41.452.641,8.258-41.075,24.522-.314Z" fill="#fefff0"/>
    </g>
  </g>
</svg>
