<svg xmlns="http://www.w3.org/2000/svg" width="1407.485" height="1425.569" viewBox="0 0 1407.485 1425.569">
  <g id="star" transform="translate(-6763.725 -3105.989)">
    <g id="Grupo_1865" data-name="Grupo 1865">
      <circle id="Elipse_39" data-name="Elipse 39" cx="669.735" cy="669.735" r="669.735" transform="translate(6826.43 3111.3)" fill="#3564da"/>
      <path id="Caminho_1068" data-name="Caminho 1068" d="M7496.165,4456.079c-372.224,0-675.048-302.822-675.048-675.043s302.824-675.047,675.048-675.047,675.045,302.827,675.045,675.047S7868.386,4456.079,7496.165,4456.079Zm0-1339.467c-366.365,0-664.425,298.06-664.425,664.424s298.06,664.42,664.425,664.42,664.422-298.055,664.422-664.42S7862.529,3116.612,7496.165,3116.612Z"/>
    </g>
    <g id="Grupo_1866" data-name="Grupo 1866">
      <path id="Caminho_1069" data-name="Caminho 1069" d="M8085.193,4089.877,7716,4081.186a73.416,73.416,0,0,0-71,49.071L7522.65,4478.694c-23.563,67.1-119.227,64.851-139.607-3.286L7277.223,4121.6a73.417,73.417,0,0,0-68.609-52.359l-369.193-8.692c-71.1-1.674-98.52-93.352-40.015-133.789L7103.2,3716.785a73.42,73.42,0,0,0,28.595-81.432l-105.821-353.809c-20.379-68.137,58.339-122.545,114.877-79.4l293.574,224.038a73.416,73.416,0,0,0,86.281,2.031L7824.5,3218.24c58.5-40.438,134.576,17.615,111.013,84.718L7813.156,3651.4a73.416,73.416,0,0,0,24.73,82.686l293.574,224.038C8188,4001.265,8156.294,4091.551,8085.193,4089.877Z" fill="#fed15c"/>
      <path id="Caminho_1070" data-name="Caminho 1070" d="M7453.568,4531.558c-.667,0-1.333-.011-2-.026-35.042-.825-64.175-23.057-74.22-56.639l-105.066-351.3a68.62,68.62,0,0,0-64.29-49.055l-366.567-8.631c-35.045-.825-64.178-23.063-74.221-56.644s2.1-68.155,30.934-88.084L7099.766,3712.7a68.63,68.63,0,0,0,26.795-76.309L7021.492,3285.1c-10.045-33.582,2.1-68.16,30.934-88.089s65.47-19.063,93.332,2.2l291.488,222.442a68.632,68.632,0,0,0,80.853,1.909L7819.73,3215.08c28.83-19.94,65.467-19.073,93.335,2.194s38.365,56.379,26.751,89.448L7818.332,3652.68a68.62,68.62,0,0,0,23.174,77.481l291.485,222.446c27.865,21.268,38.367,56.374,26.753,89.448s-41.635,54.019-76.8,53.085l-366.567-8.631a68.429,68.429,0,0,0-66.53,45.979l-121.484,345.958C7516.976,4510.887,7487.751,4531.558,7453.568,4531.558ZM7097.634,3193.3a68.732,68.732,0,0,0-39.17,12.449c-24.977,17.263-35.494,47.214-26.795,76.309l105.069,351.291a79.211,79.211,0,0,1-30.934,88.083l-301.631,208.483c-24.976,17.262-35.493,47.218-26.794,76.3s33.937,48.349,64.292,49.065l366.567,8.632a79.214,79.214,0,0,1,74.218,56.638l105.066,351.3c8.7,29.085,33.937,48.345,64.292,49.061,30.332.689,56.468-17.336,66.528-45.985l121.484-345.958a79.555,79.555,0,0,1,76.8-53.085l366.567,8.631c30.454.809,56.468-17.336,66.528-45.979s.962-59.066-23.174-77.486L7835.063,3738.6a79.209,79.209,0,0,1-26.753-89.442l121.484-345.958c10.06-28.649.962-59.061-23.174-77.486s-55.871-19.162-80.852-1.9L7524.136,3432.3a79.207,79.207,0,0,1-93.335-2.2l-291.485-222.441A68.528,68.528,0,0,0,7097.634,3193.3Z"/>
    </g>
  </g>
</svg>
